<?xml version="1.0" encoding="UTF-8"?>
<svg id="Lag_2" data-name="Lag 2" xmlns="http://www.w3.org/2000/svg" version="1.1" viewBox="0 0 295 542">
  <defs>
    <style>
      .cls-1 {
        fill: #328079;
        stroke-width: 0px;
      }
    </style>
  </defs>
  <g>
    <path class="cls-1" d="M12.2,395c0-38.2,15.9-72.8,41.4-97.4v194.9c-25.6-24.7-41.4-59.2-41.4-97.5Z"/>
    <path class="cls-1" d="M82.3,276.3c15.4-8.5,32.7-14.1,51.1-16.1v269.6c-18.5-2-35.7-7.6-51.2-16.1v-237.4c0,0,0,0,0,0Z"/>
    <path class="cls-1" d="M162.2,260.2c18.4,2,35.6,7.5,51.1,16.1v237.4c-15.5,8.5-32.8,14.1-51.2,16v-269.6Z"/>
    <path class="cls-1" d="M283.3,395.1c0,38.2-15.9,72.8-41.4,97.4v-194.9c25.5,24.6,41.4,59.2,41.4,97.5h0Z"/>
    <g>
      <path class="cls-1" d="M53.6,236.7v158.3c0,0-41.4,0-41.4,0v-190.9c0,13,16,24.6,41.4,32.6h0Z"/>
      <path class="cls-1" d="M82.4,243.5c15.5,2.6,32.8,4.2,51.1,4.3v147.2c0,0-51.1,0-51.1,0v-151.5Z"/>
      <path class="cls-1" d="M213.2,240.2v154.8c0,0-51.1,0-51.1,0v-148.1c17.6-1.2,35.1-3.5,51.1-6.7h0Z"/>
      <path class="cls-1" d="M283.4,204.2v190.9c0,0-41.4,0-41.4,0v-162c24.7-7.7,41.4-17.8,41.4-28.9h0Z"/>
    </g>
  </g>
  <path class="cls-1" d="M233.9,111.6H61.8c0,0,9.1-10.1,9.1-10.1,14.1-7.4,43.3-12.4,76.9-12.4,33.7,0,62.8,5.1,76.9,12.5l9.1,10.1h0Z"/>
  <g>
    <path class="cls-1" d="M224.8,101.5c-14.1-7.4-43.3-12.5-76.9-12.5-33.6,0-62.8,5-76.9,12.4L147.9,16.1l76.9,85.4h0Z"/>
    <path class="cls-1" d="M233.9,111.6c0,12.5-38.5,22.5-86,22.5-47.5,0-86-10.1-86-22.6h172c0,0,0,0,0,0Z"/>
  </g>
</svg>