<?xml version="1.0" encoding="UTF-8"?>
<svg id="Lag_1" data-name="Lag 1" xmlns="http://www.w3.org/2000/svg" viewBox="0 0 50 50">
  <defs>
    <style>
      .cls-1 {
        fill: #5353ff;
        stroke-width: 0px;
      }
    </style>
  </defs>
  <path class="cls-1" d="M48.75,25.22l-16.18,5.33c-.91.3-1.63,1.02-1.92,1.94l-5.19,16.23c-.12.37-.64.37-.76,0l-5.32-16.19c-.3-.91-1.02-1.63-1.94-1.92L1.21,25.43c-.37-.12-.37-.64,0-.76l16.18-5.34c.91-.3,1.62-1.02,1.92-1.93L24.49,1.17c.12-.37.64-.37.76,0l5.34,16.17c.3.91,1.02,1.62,1.93,1.92l16.22,5.2c.37.12.37.64,0,.76Z"/>
</svg>